<svg xmlns="http://www.w3.org/2000/svg" xmlns:xlink="http://www.w3.org/1999/xlink" xmlns:lucid="lucid" width="1080.47" height="352.1"><g transform="translate(-80.06612065521375 -80)" lucid:page-tab-id="0_0"><path d="M190.88 344.75c0 12.65-10.25 23.1-22.98 23.1-12.74 0-22.98-10.45-22.98-23.1 0-12.65 10.24-23.1 22.98-23.1 12.73 0 22.98 10.45 22.98 23.1zm118.5 7.15c0 12.92-10.25 23.1-22.98 23.1-12.74 0-22.98-10.18-22.98-23.1 0-12.65 10.24-22.83 22.98-22.83 12.73 0 22.98 10.18 22.98 22.83z" stroke="#000" stroke-opacity="0" fill="#fff"/><path d="M309.38 197.35c0 25.57-26.03 46.2-57.87 46.2-32.1 0-58.13-20.63-58.13-46.2 0-25.3 26.03-45.93 58.14-45.93 31.85 0 57.88 20.63 57.88 45.93z" stroke="#000" stroke-opacity="0" fill="#aa5455"/><path d="M122.22 214.95l241.98 28.32-10.8 91.58-241.7-28.33z" stroke="#000" stroke-opacity="0" fill="#5abaa7"/><path d="M332.08 347.5l21.87-119.35 22.43 4.12-21.87 119.35zm-80.57-12.65l25.76-111.93 22.43 5.23-25.76 111.92zm-78.06-7.43V211.65h23.25v115.77z" stroke="#000" stroke-opacity="0" fill="#ccc"/><path d="M236.56 178.37c0 4.95-4.43 9.08-9.7 9.08-5.53 0-9.96-4.13-9.96-9.08s4.43-9.07 9.97-9.07c5.26 0 9.7 4.12 9.7 9.07zm56.48 7.43c0 4.95-4.15 8.8-9.7 8.8-5.25 0-9.68-3.85-9.68-8.8 0-5.23 4.43-9.08 9.7-9.08 5.53 0 9.68 3.85 9.68 9.08zM187 194.87l134.56 13.2-1.1 11.55-134.56-13.2z" stroke="#000" stroke-opacity="0" fill="#5abaa7"/><path d="M105.6 196.8l271.33 29.42-2.5 22.83-271.32-29.43z" stroke="#000" stroke-opacity="0" fill="#ccc"/><path d="M170.94 138.5l3.88-3.03 31 36.58-3.87 3.3z" stroke="#000" stroke-opacity="0" fill="#aa5455"/><path d="M165.68 147.02l-1.93-2.2 21.3-17.87 1.95 2.2zm44.58-29.42l4.43-1.93 18.54 44.28-4.7 1.92z" stroke="#000" stroke-opacity="0" fill="#aa5455"/><path d="M202.5 123.92l-1.1-2.75 25.47-10.72 1.4 3.02zm62.86-11.82l4.7.27-3.6 48.13-4.98-.55z" stroke="#000" stroke-opacity="0" fill="#aa5455"/><path d="M255.4 114.3l.27-3.03 27.68 2.2-.27 3.03zm73.9 26.95l3.34 3.85-36.27 31.62-3.33-3.85z" stroke="#000" stroke-opacity="0" fill="#aa5455"/><path d="M320.73 136.02l2.5-1.92 18 20.9-2.23 1.92z" stroke="#000" stroke-opacity="0" fill="#aa5455"/><path d="M102 302.12l256.38 29.15-4.15 21.45-250.56-26.67z" stroke="#000" stroke-opacity="0" fill="#fff"/><path d="M100.07 100h22.98v227.42h-22.98V100z" stroke="#000" stroke-opacity="0" fill="#fff"/><path d="M380 160h760v252.1H380z" stroke="#000" stroke-opacity="0" stroke-width="2" fill="#fff" fill-opacity="0"/><use xlink:href="#a" transform="matrix(1,0,0,1,385,165) translate(-7.465277777777715 190.46701388888889)"/><defs><path fill="#fff" d="M995-51C878-2 799 19 639 20c-329 2-524-221-524-559 0-326 172-577 481-577 278 0 451 210 446 493v105H287c4 242 121 392 358 393 118 0 235-25 350-74v148zM864-653c2-195-85-324-270-324-190 0-288 139-303 324h573" id="b"/><path fill="#fff" d="M340-893c80-153 237-262 467-211l-23 154c-45-10-85-15-120-15-184-3-322 182-322 377V0H176v-1096h137l19 203h8" id="c"/><path fill="#fff" d="M1368-1116c259 2 372 131 371 401V0h-166v-713c0-168-66-262-230-262-221 0-303 131-303 363V0H874v-713c-1-169-66-262-231-262-235 0-301 142-301 400V0H176v-1096h135l27 150h8c56-99 174-170 324-170 171 0 283 62 336 186h8c60-108 189-187 354-186" id="d"/><path fill="#fff" d="M588-1114c260 0 384 106 385 366V0H850l-33-156h-8C708-34 639 17 442 20 231 23 94-94 94-303c0-221 177-337 531-348l186-6c11-203-40-320-233-320-91 0-195 28-310 84l-51-127c97-53 229-94 371-94zM268-301c-1 123 81 184 207 184 203 0 334-120 332-323v-99c-257 14-539-7-539 238" id="e"/><path fill="#fff" d="M340-561c134-179 332-366 485-535h197L578-629 1053 0H852L465-518 340-410V0H176v-1556h164c-4 336 9 669-8 995h8" id="f"/><path fill="#fff" d="M354-322c-2 123 60 204 176 205 51 1 114-10 150-20v127C647 7 557 20 506 20 294 20 188-92 188-315v-652H31v-80l157-69 70-234h96v254h318v129H354v645" id="g"/><g id="a"><use transform="matrix(0.08680555555555555,0,0,0.08680555555555555,0,0)" xlink:href="#b"/><use transform="matrix(0.08680555555555555,0,0,0.08680555555555555,99.73958333333333,0)" xlink:href="#b"/><use transform="matrix(0.08680555555555555,0,0,0.08680555555555555,199.47916666666666,0)" xlink:href="#c"/><use transform="matrix(0.08680555555555555,0,0,0.08680555555555555,272.0486111111111,0)" xlink:href="#d"/><use transform="matrix(0.08680555555555555,0,0,0.08680555555555555,437.41319444444446,0)" xlink:href="#e"/><use transform="matrix(0.08680555555555555,0,0,0.08680555555555555,536.2847222222222,0)" xlink:href="#c"/><use transform="matrix(0.08680555555555555,0,0,0.08680555555555555,608.8541666666666,0)" xlink:href="#f"/><use transform="matrix(0.08680555555555555,0,0,0.08680555555555555,702.1701388888888,0)" xlink:href="#g"/></g></defs></g></svg>