<svg xmlns="http://www.w3.org/2000/svg" xmlns:xlink="http://www.w3.org/1999/xlink" xmlns:lucid="lucid" width="1452.55" height="562"><g transform="translate(-526.5043782634643 -74.48818897637794)" lucid:page-tab-id="0_0"><path d="M637.98 396.2c0 12.73-10.33 23.05-23.06 23.05-12.74 0-23.06-10.32-23.06-23.06 0-12.75 10.32-23.07 23.06-23.07 12.73 0 23.06 10.32 23.06 23.06zM756.55 403.45c0 12.74-10.33 23.06-23.06 23.06-12.75 0-23.07-10.3-23.07-23.05 0-12.73 10.32-23.06 23.06-23.06 12.72 0 23.05 10.32 23.05 23.05z" stroke="#000" stroke-opacity="0" stroke-width="2" fill="#fff"/><path d="M756.55 248.75c0 25.47-25.98 46.12-58.02 46.12-32.05 0-58.03-20.65-58.03-46.12s25.98-46.12 58.03-46.12c32.04 0 58.02 20.65 58.02 46.12z" stroke="#000" stroke-opacity="0" stroke-width="2" fill="#aa5455"/><path d="M569.3 266.33l242.02 28.42-10.75 91.6-242.03-28.4z" stroke="#fff" stroke-width="2" fill="#5abaa7"/><path d="M779.17 398.87l21.9-119.4 22.68 4.15-21.9 119.4zM698.57 386.23l25.9-112 22.47 5.2-25.9 112zM620.55 378.95V262.88h23.06v116.07z" stroke="#000" stroke-opacity="0" stroke-width="2" fill="#fff"/><path d="M683.63 229.7c0 5-4.38 9.07-9.8 9.07-5.4 0-9.78-4.07-9.78-9.08 0-5.03 4.38-9.1 9.8-9.1 5.4 0 9.78 4.07 9.78 9.1zM740.3 236.95c0 5-4.38 9.08-9.78 9.08-5.4 0-9.8-4.07-9.8-9.08 0-5 4.4-9.08 9.8-9.08s9.8 4.07 9.8 9.08zM634.13 246.22l134.6 13.18-1.14 11.48L633 257.7z" stroke="#000" stroke-opacity="0" stroke-width="2" fill="#5abaa7"/><path d="M552.52 248.14l271.68 29.34-2.48 22.92-271.67-29.33z" stroke="#000" stroke-opacity="0" stroke-width="2" fill="#fff"/><path d="M618.1 189.8l3.8-3.2 30.98 36.85-3.8 3.2z" stroke="#000" stroke-opacity="0" stroke-width="2" fill="#aa5455"/><path d="M612.74 198.3l-1.97-2.35 21.26-17.87 1.97 2.35zM657.28 168.7l4.6-1.9 18.4 44.47-4.6 1.9z" stroke="#000" stroke-opacity="0" stroke-width="2" fill="#aa5455"/><path d="M649.6 175.18l-1.17-2.84 25.66-10.62 1.17 2.84zM712.35 163.26l4.95.38-3.7 47.98-4.95-.38z" stroke="#000" stroke-opacity="0" stroke-width="2" fill="#aa5455"/><path d="M702.57 165.57l.23-3.06 27.7 2.14-.24 3.06zM776.6 192.57l3.26 3.74-36.3 31.62-3.25-3.74z" stroke="#000" stroke-opacity="0" stroke-width="2" fill="#aa5455"/><path d="M768 187.35l2.32-2.02 18.24 20.94-2.3 2.02z" stroke="#000" stroke-opacity="0" stroke-width="2" fill="#aa5455"/><path d="M548.98 352.52l252.2 27.23-2.48 22.93-252.2-27.23z" stroke="#000" stroke-opacity="0" stroke-width="2" fill="#fff"/><path d="M547 378.95V151.18h23.07v227.77z" stroke="#000" stroke-opacity="0" stroke-width="2" fill="#fff"/><path d="M611.02 94.5h1348.04v522H611.02z" stroke="#000" stroke-opacity="0" stroke-width="2" fill="#fff" fill-opacity="0"/><use xlink:href="#a" transform="matrix(1,0,0,1,616.0236220472441,99.48818897637794) translate(225.64814814814815 298.6666666666667)"/><defs><path fill="#fff" d="M185-48c-13 30-37 53-82 52C43 2 14-33 14-96s30-98 90-98c62 0 83 45 84 108H66c0 31 8 55 39 56 18 0 30-7 34-22zm-45-69c5-46-57-63-70-21-2 6-4 13-4 21h74" id="b"/><path fill="#fff" d="M135-150c-39-12-60 13-60 57V0H25l-1-190h47c2 13-1 29 3 40 6-28 27-53 61-41v41" id="c"/><path fill="#fff" d="M230 0l2-204L168 0h-37L68-204 70 0H24v-248h70l56 185 57-185h69V0h-46" id="d"/><path fill="#fff" d="M133-34C117-15 103 5 69 4 32 3 11-16 11-54c-1-60 55-63 116-61 1-26-3-47-28-47-18 1-26 9-28 27l-52-2c7-38 36-58 82-57s74 22 75 68l1 82c-1 14 12 18 25 15v27c-30 8-71 5-69-32zm-48 3c29 0 43-24 42-57-32 0-66-3-65 30 0 17 8 27 23 27" id="e"/><path fill="#fff" d="M147 0L96-86 75-71V0H25v-261h50v150l67-79h53l-66 74L201 0h-54" id="f"/><path fill="#fff" d="M115-3C79 11 28 4 28-45v-112H4v-33h27l15-45h31v45h36v33H77v99c-1 23 16 31 38 25v30" id="g"/><g id="a"><use transform="matrix(0.5925925925925927,0,0,0.5925925925925927,0,0)" xlink:href="#b"/><use transform="matrix(0.5925925925925927,0,0,0.5925925925925927,118.51851851851853,0)" xlink:href="#b"/><use transform="matrix(0.5925925925925927,0,0,0.5925925925925927,237.03703703703707,0)" xlink:href="#c"/><use transform="matrix(0.5925925925925927,0,0,0.5925925925925927,320.00000000000006,0)" xlink:href="#d"/><use transform="matrix(0.5925925925925927,0,0,0.5925925925925927,497.1851851851853,0)" xlink:href="#e"/><use transform="matrix(0.5925925925925927,0,0,0.5925925925925927,615.7037037037038,0)" xlink:href="#c"/><use transform="matrix(0.5925925925925927,0,0,0.5925925925925927,698.6666666666667,0)" xlink:href="#f"/><use transform="matrix(0.5925925925925927,0,0,0.5925925925925927,817.1851851851851,0)" xlink:href="#g"/></g></defs></g></svg>